<svg xmlns="http://www.w3.org/2000/svg" xmlns:xlink="http://www.w3.org/1999/xlink" width="20" height="20" viewBox="0 0 20 20"><defs><style>.a{fill:#fff;}.b{clip-path:url(#a);}</style><clipPath id="a"><rect class="a" width="20" height="20" transform="translate(-0.142)"/></clipPath></defs><g class="b" transform="translate(0.142)"><g transform="translate(0)"><path class="a" d="M9.929,0a9.929,9.929,0,1,0,9.928,9.924A9.926,9.926,0,0,0,9.929,0Zm.708,15.448a1.169,1.169,0,0,1-.8.308,1.209,1.209,0,0,1-.82-.3,1.066,1.066,0,0,1-.351-.851,1.1,1.1,0,0,1,.339-.816,1.144,1.144,0,0,1,.831-.331A1.13,1.13,0,0,1,10.984,14.6,1.076,1.076,0,0,1,10.637,15.448ZM13.512,8.32a3.51,3.51,0,0,1-.632.851q-.365.358-1.313,1.2a5.433,5.433,0,0,0-.419.419,1.709,1.709,0,0,0-.235.331,1.6,1.6,0,0,0-.119.3q-.042.15-.127.527a.856.856,0,0,1-.916.8.938.938,0,0,1-.674-.262,1.028,1.028,0,0,1-.273-.777,2.865,2.865,0,0,1,.2-1.12,2.831,2.831,0,0,1,.531-.832,12.172,12.172,0,0,1,.893-.851q.493-.431.712-.65a2.2,2.2,0,0,0,.369-.489,1.177,1.177,0,0,0,.15-.585A1.358,1.358,0,0,0,11.2,6.149a1.673,1.673,0,0,0-1.182-.423,1.635,1.635,0,0,0-1.247.427A3.409,3.409,0,0,0,8.1,7.411q-.262.87-.993.87a.977.977,0,0,1-.728-.3.93.93,0,0,1-.3-.658,2.785,2.785,0,0,1,.469-1.482A3.614,3.614,0,0,1,7.919,4.594a4.31,4.31,0,0,1,2.1-.493,4.484,4.484,0,0,1,1.971.412,3.194,3.194,0,0,1,1.321,1.12,2.749,2.749,0,0,1,.466,1.54A2.371,2.371,0,0,1,13.512,8.32Z" transform="translate(-0.001)"/></g></g></svg>