<svg xmlns="http://www.w3.org/2000/svg" xmlns:xlink="http://www.w3.org/1999/xlink" width="20" height="20" viewBox="0 0 20 20"><defs><style>.a{fill:#fff;}.b{clip-path:url(#a);}</style><clipPath id="a"><rect class="a" width="20" height="20" transform="translate(22 722)"/></clipPath></defs><g class="b" transform="translate(-22 -722)"><g transform="translate(22 722)"><path class="a" d="M19.936,8.848a.843.843,0,0,0-.181-.272l-2.5-2.5a.833.833,0,1,0-1.178,1.178l1.077,1.077H12.5A.833.833,0,1,0,12.5,10h4.655l-1.077,1.077a.833.833,0,1,0,1.178,1.178l2.5-2.5a.825.825,0,0,0,.181-.272A.834.834,0,0,0,19.936,8.848Z"/><path class="a" d="M14.167,11.667a.833.833,0,0,0-.833.833v4.167H10V3.333a.834.834,0,0,0-.594-.8L6.512,1.667h6.822V5.833a.833.833,0,0,0,1.667,0v-5A.833.833,0,0,0,14.167,0H.834A.743.743,0,0,0,.748.016.823.823,0,0,0,.395.139C.376.151.354.152.336.165S.327.179.321.184A.826.826,0,0,0,.1.447a.681.681,0,0,0-.023.07A.79.79,0,0,0,.01.712a.519.519,0,0,0,0,.072C.011.8,0,.817,0,.833V17.5a.833.833,0,0,0,.67.817L9,19.983A.776.776,0,0,0,9.167,20,.834.834,0,0,0,10,19.167v-.833h4.167A.833.833,0,0,0,15,17.5v-5A.833.833,0,0,0,14.167,11.667Z"/></g></g></svg>